<svg id="Layer_1" data-name="Layer 1" xmlns="http://www.w3.org/2000/svg" viewBox="0 0 418.04 145.2"><defs><style>.cls-1{fill:#e30613;}</style></defs><path class="cls-1" d="M212.1,298.56a72.69,72.69,0,0,0,72.6,72.61,71.92,71.92,0,0,0,52.4-22.46,5.71,5.71,0,0,0,.51-.58l1.29-1.48c.16-.18.31-.37.46-.55l23.49-29.91c4.78,19.49,9.73,39.73,9.73,39.73A15.18,15.18,0,0,0,400.41,360l22.12-37.69c4.09,16.76,8.19,33.59,8.19,33.59A15.18,15.18,0,0,0,458.55,360l41.27-70a15.18,15.18,0,1,0-26.17-15.4s-11.19,19-22.27,37.8c-4.09-16.81-8.19-33.71-8.19-33.71a15.2,15.2,0,0,0-27.85-4.08l-22.17,37.79c-4.11-16.84-8.24-33.71-8.24-33.71a15.2,15.2,0,0,0-26.71-5.77L315.7,327.07l-.62.74a42.23,42.23,0,1,1-4.67-62.67,15.18,15.18,0,1,0,18.6-24A71.77,71.77,0,0,0,284.7,226,72.69,72.69,0,0,0,212.1,298.56Z" transform="translate(-212.1 -225.97)"/><polygon class="cls-1" points="356.37 116.67 356.37 121.41 381.66 121.43 381.66 141.5 393.11 141.5 393.11 121.43 418.04 121.41 418.04 116.67 356.37 116.67"/><path class="cls-1" d="M589.79,336.61a68.54,68.54,0,0,0,19.12,0c9.08-1,12.8-5.31,12.8-5.31a10.21,10.21,0,0,0,0-14.62s-3.72-4.29-12.8-5.32a66.57,66.57,0,0,0-19.12,0c-9.09,1-12.79,5.32-12.79,5.32a10.19,10.19,0,0,0,0,14.62s3.7,4.3,12.79,5.31m-2.17-17.42s2-2.8,6.74-3.49a29.63,29.63,0,0,1,10.06,0c4.79.69,6.75,3.49,6.75,3.49a7.59,7.59,0,0,1,1.61,4.78,7.49,7.49,0,0,1-1.61,4.76s-2,2.81-6.75,3.48a28.34,28.34,0,0,1-10.06,0c-4.79-.67-6.74-3.48-6.74-3.48A7.49,7.49,0,0,1,586,324,7.59,7.59,0,0,1,587.62,319.19Z" transform="translate(-212.1 -225.97)"/><polygon class="cls-1" points="338.21 115.43 348.79 115.43 348.79 86.41 338.21 86.41 338.21 96.4 327.4 96.4 327.4 101.65 338.21 101.65 338.21 115.43"/><path class="cls-1" d="M545,342.69a76.35,76.35,0,0,0-19.73,0c-9.38,1-13.19,5.08-13.19,5.08a9.23,9.23,0,0,0,0,14s3.81,4.1,13.19,5.06a73,73,0,0,0,19.73,0c9.38-1,13.2-5.06,13.2-5.06a9.23,9.23,0,0,0,0-14s-3.82-4.11-13.2-5.08m3.45,16.5s-2.22,2.61-7.63,3.24a51.69,51.69,0,0,1-5.72.4,51.17,51.17,0,0,1-5.71-.4c-5.41-.63-7.63-3.24-7.63-3.24a6.33,6.33,0,0,1,0-8.94s2.22-2.61,7.63-3.24a41,41,0,0,1,11.43,0c5.41.63,7.63,3.24,7.63,3.24a6.35,6.35,0,0,1,0,8.94Z" transform="translate(-212.1 -225.97)"/><path class="cls-1" d="M522.29,328.4c4.87,1.85,10.2,5.34,13.34,10.47l7.94-4.81c-4-4.87-10.76-8.46-18.52-10.13a21.61,21.61,0,0,0,1.23-3.61h12.83v-5H526.82v-4.47H515.59v4.47H502.94v5h11.92c-2.05,7.52-5.9,11.31-15.13,14.62l3,3.74C511.59,336.9,518.25,333.38,522.29,328.4Z" transform="translate(-212.1 -225.97)"/></svg>